<svg width="24" height="13" viewBox="0 0 24 13" fill="none" xmlns="http://www.w3.org/2000/svg">
<rect width="24" height="13" fill="#1E1E1E"/>
<path d="M8.45881 4.32812H6.59233C6.55824 4.08665 6.48864 3.87216 6.38352 3.68466C6.27841 3.49432 6.14347 3.33239 5.97869 3.19886C5.81392 3.06534 5.62358 2.96307 5.40767 2.89205C5.1946 2.82102 4.96307 2.78551 4.71307 2.78551C4.26136 2.78551 3.8679 2.89773 3.53267 3.12216C3.19744 3.34375 2.9375 3.66761 2.75284 4.09375C2.56818 4.51705 2.47585 5.03125 2.47585 5.63636C2.47585 6.25852 2.56818 6.78125 2.75284 7.20455C2.94034 7.62784 3.2017 7.94744 3.53693 8.16335C3.87216 8.37926 4.25994 8.48722 4.70028 8.48722C4.94744 8.48722 5.17614 8.45455 5.38636 8.3892C5.59943 8.32386 5.78835 8.22869 5.95312 8.10369C6.1179 7.97585 6.25426 7.82102 6.36222 7.6392C6.47301 7.45739 6.54972 7.25 6.59233 7.01705L8.45881 7.02557C8.41051 7.42614 8.28977 7.8125 8.09659 8.18466C7.90625 8.55398 7.64915 8.88494 7.32528 9.17756C7.00426 9.46733 6.62074 9.69744 6.17472 9.8679C5.73153 10.0355 5.23011 10.1193 4.67045 10.1193C3.89205 10.1193 3.19602 9.94318 2.58239 9.59091C1.97159 9.23864 1.48864 8.72869 1.13352 8.06108C0.78125 7.39347 0.605114 6.58523 0.605114 5.63636C0.605114 4.68466 0.784091 3.875 1.14205 3.20739C1.5 2.53977 1.9858 2.03125 2.59943 1.68182C3.21307 1.32955 3.90341 1.15341 4.67045 1.15341C5.17614 1.15341 5.64489 1.22443 6.0767 1.36648C6.51136 1.50852 6.89631 1.71591 7.23153 1.98864C7.56676 2.25852 7.83949 2.58949 8.04972 2.98153C8.26278 3.37358 8.39915 3.82244 8.45881 4.32812ZM9.74787 10V3.45455H11.5632V10H9.74787ZM10.6598 2.6108C10.3899 2.6108 10.1584 2.52131 9.9652 2.34233C9.77486 2.16051 9.67969 1.94318 9.67969 1.69034C9.67969 1.44034 9.77486 1.22585 9.9652 1.04688C10.1584 0.865057 10.3899 0.774147 10.6598 0.774147C10.9297 0.774147 11.1598 0.865057 11.3501 1.04688C11.5433 1.22585 11.6399 1.44034 11.6399 1.69034C11.6399 1.94318 11.5433 2.16051 11.3501 2.34233C11.1598 2.52131 10.9297 2.6108 10.6598 2.6108ZM16.4989 3.45455V4.81818H12.5572V3.45455H16.4989ZM13.4521 1.88636H15.2674V7.98864C15.2674 8.15625 15.293 8.28693 15.3441 8.38068C15.3952 8.47159 15.4663 8.53551 15.5572 8.57244C15.6509 8.60937 15.7589 8.62784 15.881 8.62784C15.9663 8.62784 16.0515 8.62074 16.1367 8.60653C16.2219 8.58949 16.2873 8.5767 16.3327 8.56818L16.6183 9.91903C16.5273 9.94744 16.3995 9.98011 16.2347 10.017C16.07 10.0568 15.8697 10.081 15.6339 10.0895C15.1964 10.1065 14.8129 10.0483 14.4833 9.91477C14.1566 9.78125 13.9023 9.57386 13.7205 9.29261C13.5387 9.01136 13.4492 8.65625 13.4521 8.22727V1.88636ZM18.8022 12.4545C18.5721 12.4545 18.3562 12.4361 18.1545 12.3991C17.9556 12.3651 17.7908 12.321 17.6602 12.267L18.0692 10.9119C18.2823 10.9773 18.4741 11.0128 18.6445 11.0185C18.8178 11.0241 18.967 10.9844 19.092 10.8991C19.2198 10.8139 19.3235 10.669 19.4031 10.4645L19.5096 10.1875L17.1616 3.45455H19.0707L20.4258 8.26136H20.494L21.8619 3.45455H23.7837L21.2397 10.7074C21.1175 11.0597 20.9513 11.3665 20.7411 11.6278C20.5337 11.892 20.271 12.0952 19.9528 12.2372C19.6346 12.3821 19.2511 12.4545 18.8022 12.4545Z" fill="white"/>
</svg>
